<svg id="visual" viewBox="0 0 960 540" width="960" height="540" xmlns="http://www.w3.org/2000/svg" xmlns:xlink="http://www.w3.org/1999/xlink" version="1.1"><g stroke-width="1" stroke-linejoin="bevel"><path d="M416.7 308L384.7 320L467.7 411Z" fill="#266c91" stroke="#266c91"></path><path d="M467.7 411L501.3 372L416.7 308Z" fill="#0d314a" stroke="#0d314a"></path><path d="M317 237L313 346L384.7 320Z" fill="#1a4d6d" stroke="#1a4d6d"></path><path d="M384.7 320L313 346L467.7 411Z" fill="#0d314a" stroke="#0d314a"></path><path d="M501.3 372L560.3 303L416.7 308Z" fill="#2a779d" stroke="#2a779d"></path><path d="M348 166L317 237L416.7 308Z" fill="#1e5779" stroke="#1e5779"></path><path d="M416.7 308L317 237L384.7 320Z" fill="#041f34" stroke="#041f34"></path><path d="M286 486L448.7 540L467.7 411Z" fill="#041f34" stroke="#041f34"></path><path d="M570.3 490L603 379L501.3 372Z" fill="#0d314a" stroke="#0d314a"></path><path d="M501.3 372L603 379L560.3 303Z" fill="#1e5779" stroke="#1e5779"></path><path d="M245.3 451L286 486L313 346Z" fill="#113a56" stroke="#113a56"></path><path d="M313 346L286 486L467.7 411Z" fill="#1e5779" stroke="#1e5779"></path><path d="M570.3 490L501.3 372L467.7 411Z" fill="#226285" stroke="#226285"></path><path d="M448.7 540L570.3 490L467.7 411Z" fill="#0d314a" stroke="#0d314a"></path><path d="M596 273L519.3 205L560.3 303Z" fill="#226285" stroke="#226285"></path><path d="M560.3 303L519.3 205L416.7 308Z" fill="#2e82a9" stroke="#2e82a9"></path><path d="M224.3 319L245.3 451L313 346Z" fill="#08283f" stroke="#08283f"></path><path d="M603 379L596 273L560.3 303Z" fill="#1a4d6d" stroke="#1a4d6d"></path><path d="M234.3 540L310 540L286 486Z" fill="#113a56" stroke="#113a56"></path><path d="M286 486L310 540L448.7 540Z" fill="#1e5779" stroke="#1e5779"></path><path d="M317 237L224.3 319L313 346Z" fill="#113a56" stroke="#113a56"></path><path d="M570.3 490L621 413L603 379Z" fill="#08283f" stroke="#08283f"></path><path d="M764.7 345L655 219L596 273Z" fill="#08283f" stroke="#08283f"></path><path d="M448.7 540L543.3 540L570.3 490Z" fill="#2a779d" stroke="#2a779d"></path><path d="M570.3 490L651 540L621 413Z" fill="#1e5779" stroke="#1e5779"></path><path d="M401.7 146L348 166L416.7 308Z" fill="#1e5779" stroke="#1e5779"></path><path d="M317 237L216.3 274L224.3 319Z" fill="#08283f" stroke="#08283f"></path><path d="M519.3 205L401.7 146L416.7 308Z" fill="#113a56" stroke="#113a56"></path><path d="M214.3 215L216.3 274L317 237Z" fill="#1e5779" stroke="#1e5779"></path><path d="M103.7 540L234.3 540L245.3 451Z" fill="#266c91" stroke="#266c91"></path><path d="M245.3 451L234.3 540L286 486Z" fill="#041f34" stroke="#041f34"></path><path d="M103.7 540L245.3 451L58.7 493Z" fill="#0d314a" stroke="#0d314a"></path><path d="M272 118L214.3 215L317 237Z" fill="#113a56" stroke="#113a56"></path><path d="M272 118L317 237L348 166Z" fill="#041f34" stroke="#041f34"></path><path d="M519.3 205L456.7 105L401.7 146Z" fill="#1a4d6d" stroke="#1a4d6d"></path><path d="M401.7 146L272 118L348 166Z" fill="#266c91" stroke="#266c91"></path><path d="M572.3 133L456.7 105L519.3 205Z" fill="#164361" stroke="#164361"></path><path d="M764.7 345L596 273L603 379Z" fill="#2a779d" stroke="#2a779d"></path><path d="M596 273L655 219L519.3 205Z" fill="#1a4d6d" stroke="#1a4d6d"></path><path d="M655 219L572.3 133L519.3 205Z" fill="#226285" stroke="#226285"></path><path d="M543.3 540L651 540L570.3 490Z" fill="#226285" stroke="#226285"></path><path d="M621 413L764.7 345L603 379Z" fill="#1a4d6d" stroke="#1a4d6d"></path><path d="M400.7 0L272 118L401.7 146Z" fill="#164361" stroke="#164361"></path><path d="M651 540L717.7 540L621 413Z" fill="#2a779d" stroke="#2a779d"></path><path d="M774.7 419L764.7 345L621 413Z" fill="#226285" stroke="#226285"></path><path d="M147.7 124L111.7 220L214.3 215Z" fill="#2e82a9" stroke="#2e82a9"></path><path d="M214.3 215L111.7 220L216.3 274Z" fill="#266c91" stroke="#266c91"></path><path d="M216.3 274L62.7 265L224.3 319Z" fill="#1a4d6d" stroke="#1a4d6d"></path><path d="M786.7 301L730.7 203L655 219Z" fill="#2a779d" stroke="#2a779d"></path><path d="M655 219L632 80L572.3 133Z" fill="#164361" stroke="#164361"></path><path d="M171.3 0L173.3 117L272 118Z" fill="#1e5779" stroke="#1e5779"></path><path d="M272 118L173.3 117L214.3 215Z" fill="#113a56" stroke="#113a56"></path><path d="M717.7 540L774.7 419L621 413Z" fill="#0d314a" stroke="#0d314a"></path><path d="M730.7 203L632 80L655 219Z" fill="#226285" stroke="#226285"></path><path d="M572.3 133L521.3 0L456.7 105Z" fill="#0d314a" stroke="#0d314a"></path><path d="M456.7 105L400.7 0L401.7 146Z" fill="#2e82a9" stroke="#2e82a9"></path><path d="M58.7 402L245.3 451L224.3 319Z" fill="#266c91" stroke="#266c91"></path><path d="M62.7 265L58.7 402L224.3 319Z" fill="#1a4d6d" stroke="#1a4d6d"></path><path d="M173.3 117L147.7 124L214.3 215Z" fill="#266c91" stroke="#266c91"></path><path d="M521.3 0L400.7 0L456.7 105Z" fill="#1e5779" stroke="#1e5779"></path><path d="M173.3 117L126.7 0L147.7 124Z" fill="#113a56" stroke="#113a56"></path><path d="M819.3 400L786.7 301L764.7 345Z" fill="#1a4d6d" stroke="#1a4d6d"></path><path d="M764.7 345L786.7 301L655 219Z" fill="#266c91" stroke="#266c91"></path><path d="M0 268L62.7 265L0 207Z" fill="#08283f" stroke="#08283f"></path><path d="M111.7 220L62.7 265L216.3 274Z" fill="#113a56" stroke="#113a56"></path><path d="M632 80L521.3 0L572.3 133Z" fill="#266c91" stroke="#266c91"></path><path d="M58.7 402L58.7 493L245.3 451Z" fill="#226285" stroke="#226285"></path><path d="M400.7 0L290 0L272 118Z" fill="#2a779d" stroke="#2a779d"></path><path d="M836.3 477L819.3 400L774.7 419Z" fill="#0d314a" stroke="#0d314a"></path><path d="M774.7 419L819.3 400L764.7 345Z" fill="#2a779d" stroke="#2a779d"></path><path d="M701.7 44L628 0L632 80Z" fill="#266c91" stroke="#266c91"></path><path d="M632 80L628 0L521.3 0Z" fill="#08283f" stroke="#08283f"></path><path d="M701.7 44L632 80L730.7 203Z" fill="#113a56" stroke="#113a56"></path><path d="M0 268L0 328L62.7 265Z" fill="#2e82a9" stroke="#2e82a9"></path><path d="M62.7 265L0 328L58.7 402Z" fill="#1e5779" stroke="#1e5779"></path><path d="M58.7 402L0 412L58.7 493Z" fill="#2a779d" stroke="#2a779d"></path><path d="M0 328L0 412L58.7 402Z" fill="#226285" stroke="#226285"></path><path d="M717.7 540L836.3 477L774.7 419Z" fill="#266c91" stroke="#266c91"></path><path d="M832.3 84L701.7 44L730.7 203Z" fill="#08283f" stroke="#08283f"></path><path d="M0 207L62.7 265L111.7 220Z" fill="#1e5779" stroke="#1e5779"></path><path d="M290 0L171.3 0L272 118Z" fill="#164361" stroke="#164361"></path><path d="M0 98L0 207L111.7 220Z" fill="#041f34" stroke="#041f34"></path><path d="M717.7 540L838.3 540L836.3 477Z" fill="#0d314a" stroke="#0d314a"></path><path d="M0 98L111.7 220L147.7 124Z" fill="#226285" stroke="#226285"></path><path d="M0 412L0 540L58.7 493Z" fill="#164361" stroke="#164361"></path><path d="M58.7 493L0 540L103.7 540Z" fill="#266c91" stroke="#266c91"></path><path d="M171.3 0L126.7 0L173.3 117Z" fill="#113a56" stroke="#113a56"></path><path d="M819.3 400L893.3 265L786.7 301Z" fill="#164361" stroke="#164361"></path><path d="M786.7 301L899.3 183L730.7 203Z" fill="#041f34" stroke="#041f34"></path><path d="M960 356L893.3 265L819.3 400Z" fill="#0d314a" stroke="#0d314a"></path><path d="M960 356L819.3 400L960 469Z" fill="#1a4d6d" stroke="#1a4d6d"></path><path d="M899.3 183L832.3 84L730.7 203Z" fill="#0d314a" stroke="#0d314a"></path><path d="M701.7 44L759.7 0L628 0Z" fill="#266c91" stroke="#266c91"></path><path d="M832.3 84L759.7 0L701.7 44Z" fill="#113a56" stroke="#113a56"></path><path d="M126.7 0L0 98L147.7 124Z" fill="#2e82a9" stroke="#2e82a9"></path><path d="M893.3 265L899.3 183L786.7 301Z" fill="#226285" stroke="#226285"></path><path d="M960 469L819.3 400L836.3 477Z" fill="#0d314a" stroke="#0d314a"></path><path d="M893.3 265L960 286L899.3 183Z" fill="#08283f" stroke="#08283f"></path><path d="M960 356L960 286L893.3 265Z" fill="#2e82a9" stroke="#2e82a9"></path><path d="M960 540L960 469L836.3 477Z" fill="#226285" stroke="#226285"></path><path d="M126.7 0L0 0L0 98Z" fill="#2a779d" stroke="#2a779d"></path><path d="M838.3 540L960 540L836.3 477Z" fill="#164361" stroke="#164361"></path><path d="M960 119L832.3 84L899.3 183Z" fill="#1a4d6d" stroke="#1a4d6d"></path><path d="M960 119L859.3 0L832.3 84Z" fill="#113a56" stroke="#113a56"></path><path d="M832.3 84L859.3 0L759.7 0Z" fill="#1e5779" stroke="#1e5779"></path><path d="M960 286L960 161L899.3 183Z" fill="#164361" stroke="#164361"></path><path d="M960 161L960 119L899.3 183Z" fill="#2e82a9" stroke="#2e82a9"></path><path d="M960 119L960 0L859.3 0Z" fill="#164361" stroke="#164361"></path></g></svg>